<?xml version="1.0" standalone="no"?>
<!DOCTYPE svg PUBLIC "-//W3C//DTD SVG 20010904//EN"
 "http://www.w3.org/TR/2001/REC-SVG-20010904/DTD/svg10.dtd">
<svg version="1.0" xmlns="http://www.w3.org/2000/svg"
 width="700.000000pt" height="700.000000pt" viewBox="0 0 700.000000 700.000000"
 preserveAspectRatio="xMidYMid meet">
<metadata>
Created by potrace 1.14, written by Peter Selinger 2001-2017
</metadata>
<g transform="translate(0.000000,700.000000) scale(0.100000,-0.100000)"
fill="#000000" stroke="none">
<path d="M3356 6539 c-72 -25 -119 -57 -213 -146 -86 -82 -403 -386 -562 -539
-64 -61 -141 -135 -171 -163 -30 -29 -136 -130 -234 -224 -166 -159 -294 -281
-422 -403 -28 -27 -140 -134 -249 -239 -294 -282 -627 -601 -727 -696 -31 -30
-129 -124 -218 -209 -89 -85 -193 -185 -231 -221 -100 -96 -127 -171 -97 -270
13 -44 63 -101 111 -126 43 -22 141 -22 188 0 20 10 102 82 184 160 81 78 151
141 154 140 3 -2 6 -625 7 -1385 0 -761 4 -1403 8 -1428 27 -158 168 -302 332
-341 58 -13 1370 -19 1451 -6 61 10 123 58 155 121 21 41 21 41 22 1011 1 922
2 972 19 999 10 15 31 33 47 39 20 9 182 12 597 12 523 0 571 -2 596 -18 54
-35 51 8 52 -1012 1 -522 5 -969 9 -992 10 -57 72 -126 132 -149 43 -16 102
-18 748 -17 723 0 739 1 826 41 121 55 224 186 246 312 4 25 9 666 10 1425 1
759 2 1384 3 1389 0 5 36 -25 79 -67 244 -237 255 -245 330 -251 93 -8 193 46
224 122 20 50 21 121 3 169 -19 50 -33 64 -345 363 -107 102 -220 210 -251
240 -94 90 -378 362 -431 412 l-49 46 0 739 c0 406 -2 757 -6 781 -8 63 -58
131 -117 161 l-49 25 -351 1 c-193 1 -370 -2 -393 -7 -59 -10 -119 -53 -151
-107 l-27 -46 0 -247 c0 -137 -1 -248 -2 -248 -1 0 -23 21 -50 46 -120 114
-437 418 -528 506 -254 244 -272 259 -355 293 -69 28 -228 30 -304 4z m185
-450 c19 -17 119 -113 223 -213 105 -99 206 -197 227 -216 20 -19 130 -125
244 -235 238 -229 234 -224 465 -445 95 -91 205 -196 244 -233 39 -38 147
-142 240 -230 155 -148 335 -321 457 -438 l48 -46 -2 -1579 -2 -1579 -535 -1
c-294 0 -540 1 -546 3 -7 3 -10 264 -11 856 0 774 -2 858 -17 917 -26 98 -73
178 -146 250 -88 88 -174 132 -300 156 -19 3 -306 6 -637 6 -656 0 -657 0
-778 -58 -156 -74 -272 -228 -301 -401 -4 -21 -7 -418 -8 -883 l-1 -845 -545
0 -545 0 -2 1580 -1 1580 41 39 c23 21 130 123 237 226 107 103 215 207 240
230 25 23 131 124 235 225 105 100 206 198 226 216 20 19 125 120 234 224 109
105 217 208 240 230 23 22 132 126 241 231 109 105 215 205 234 223 19 18 83
80 142 137 59 57 112 104 117 104 5 0 24 -14 42 -31z m1709 -608 l0 -425 -97
95 c-54 52 -103 101 -110 109 -9 11 -12 96 -13 331 l0 315 110 0 110 0 0 -425z"/>
</g>
</svg>
